<svg xmlns="http://www.w3.org/2000/svg" version="1.1" width="197.7mm" height="162.7mm" viewBox = " 0 0 700.512387 576.496537" >
<!-- Front--> 
<g transform="translate(22.5000185, 22.5000185) " > 
<polygon style="stroke:#000000; fill:none; stroke-width:0.90000074" points="0, 0 35.433099999999996, 0 35.433099999999996, 10.62993 70.86619999999999, 10.62993 70.86619999999999, 0 92.12606, 0 92.12606, 10.62993 113.38592, 10.62993 113.38592, 0 134.64578, 0 134.64578, 10.62993 155.90564, 10.62993 155.90564, 0 177.1655, 0 177.1655, 10.62993 212.59859999999998, 10.62993 212.59859999999998, 0 248.0317, 0 248.0317, 29.2323075 237.40177, 29.2323075 237.40177, 58.464615 248.0317, 58.464615 248.0317, 79.724475 237.40177, 79.724475 237.40177, 100.984335 248.0317, 100.984335 248.0317, 122.24419499999999 237.40177, 122.24419499999999 237.40177, 143.504055 248.0317, 143.504055 248.0317, 164.763915 237.40177, 164.763915 237.40177, 186.023775 248.0317, 186.023775 248.0317, 207.283635 237.40177, 207.283635 237.40177, 236.5159425 248.0317, 236.5159425 248.0317, 265.74825 212.59859999999998, 265.74825 212.59859999999998, 255.11831999999998 177.1655, 255.11831999999998 177.1655, 265.74825 155.90564, 265.74825 155.90564, 255.11831999999998 134.64578, 255.11831999999998 134.64578, 265.74825 113.38592, 265.74825 113.38592, 255.11831999999998 92.12606, 255.11831999999998 92.12606, 265.74825 70.86619999999999, 265.74825 70.86619999999999, 255.11831999999998 35.433099999999996, 255.11831999999998 35.433099999999996, 265.74825 0, 265.74825 0, 236.5159425 10.62993, 236.5159425 10.62993, 207.283635 0, 207.283635 0, 186.023775 10.62993, 186.023775 10.62993, 164.763915 0, 164.763915 0, 143.504055 10.62993, 143.504055 10.62993, 122.24419499999999 0, 122.24419499999999 0, 100.984335 10.62993, 100.984335 10.62993, 79.724475 0, 79.724475 0, 58.464615 10.62993, 58.464615 10.62993, 29.2323075 0, 29.2323075 "/> 
</g>
<!-- Back--> 
<g transform="translate(270.53171849999995, 22.5000185) " > 
<polygon style="stroke:#000000; fill:none; stroke-width:0.90000074" points="0, 0 35.433099999999996, 0 35.433099999999996, 10.62993 70.86619999999999, 10.62993 70.86619999999999, 0 92.12606, 0 92.12606, 10.62993 113.38592, 10.62993 113.38592, 0 134.64578, 0 134.64578, 10.62993 155.90564, 10.62993 155.90564, 0 177.1655, 0 177.1655, 10.62993 212.59859999999998, 10.62993 212.59859999999998, 0 248.0317, 0 248.0317, 29.2323075 237.40177, 29.2323075 237.40177, 58.464615 248.0317, 58.464615 248.0317, 79.724475 237.40177, 79.724475 237.40177, 100.984335 248.0317, 100.984335 248.0317, 122.24419499999999 237.40177, 122.24419499999999 237.40177, 143.504055 248.0317, 143.504055 248.0317, 164.763915 237.40177, 164.763915 237.40177, 186.023775 248.0317, 186.023775 248.0317, 207.283635 237.40177, 207.283635 237.40177, 236.5159425 248.0317, 236.5159425 248.0317, 265.74825 212.59859999999998, 265.74825 212.59859999999998, 255.11831999999998 177.1655, 255.11831999999998 177.1655, 265.74825 155.90564, 265.74825 155.90564, 255.11831999999998 134.64578, 255.11831999999998 134.64578, 265.74825 113.38592, 265.74825 113.38592, 255.11831999999998 92.12606, 255.11831999999998 92.12606, 265.74825 70.86619999999999, 265.74825 70.86619999999999, 255.11831999999998 35.433099999999996, 255.11831999999998 35.433099999999996, 265.74825 0, 265.74825 0, 236.5159425 10.62993, 236.5159425 10.62993, 207.283635 0, 207.283635 0, 186.023775 10.62993, 186.023775 10.62993, 164.763915 0, 164.763915 0, 143.504055 10.62993, 143.504055 10.62993, 122.24419499999999 0, 122.24419499999999 0, 100.984335 10.62993, 100.984335 10.62993, 79.724475 0, 79.724475 0, 58.464615 10.62993, 58.464615 10.62993, 29.2323075 0, 29.2323075 "/> 
</g>
<!-- Left--> 
<g transform="translate(518.5634185, 22.5000185) " > 
<polygon style="stroke:#000000; fill:none; stroke-width:0.90000074" points="10.62993, 0 34.5472725, 0 34.5472725, 10.62993 69.094545, 10.62993 69.094545, 0 90.354405, 0 90.354405, 10.62993 124.9016775, 10.62993 124.9016775, 0 148.81902, 0 148.81902, 29.2323075 159.44895, 29.2323075 159.44895, 58.464615 148.81902, 58.464615 148.81902, 79.724475 159.44895, 79.724475 159.44895, 100.984335 148.81902, 100.984335 148.81902, 122.24419499999999 159.44895, 122.24419499999999 159.44895, 143.504055 148.81902, 143.504055 148.81902, 164.763915 159.44895, 164.763915 159.44895, 186.023775 148.81902, 186.023775 148.81902, 207.283635 159.44895, 207.283635 159.44895, 236.5159425 148.81902, 236.5159425 148.81902, 265.74825 124.9016775, 265.74825 124.9016775, 255.11831999999998 90.354405, 255.11831999999998 90.354405, 265.74825 69.094545, 265.74825 69.094545, 255.11831999999998 34.5472725, 255.11831999999998 34.5472725, 265.74825 10.62993, 265.74825 10.62993, 236.5159425 0, 236.5159425 0, 207.283635 10.62993, 207.283635 10.62993, 186.023775 0, 186.023775 0, 164.763915 10.62993, 164.763915 10.62993, 143.504055 0, 143.504055 0, 122.24419499999999 10.62993, 122.24419499999999 10.62993, 100.984335 0, 100.984335 0, 79.724475 10.62993, 79.724475 10.62993, 58.464615 0, 58.464615 0, 29.2323075 10.62993, 29.2323075 "/> 
</g>
<!-- Right--> 
<g transform="translate(518.5634185, 288.2482685) " > 
<polygon style="stroke:#000000; fill:none; stroke-width:0.90000074" points="10.62993, 0 34.5472725, 0 34.5472725, 10.62993 69.094545, 10.62993 69.094545, 0 90.354405, 0 90.354405, 10.62993 124.9016775, 10.62993 124.9016775, 0 148.81902, 0 148.81902, 29.2323075 159.44895, 29.2323075 159.44895, 58.464615 148.81902, 58.464615 148.81902, 79.724475 159.44895, 79.724475 159.44895, 100.984335 148.81902, 100.984335 148.81902, 122.24419499999999 159.44895, 122.24419499999999 159.44895, 143.504055 148.81902, 143.504055 148.81902, 164.763915 159.44895, 164.763915 159.44895, 186.023775 148.81902, 186.023775 148.81902, 207.283635 159.44895, 207.283635 159.44895, 236.5159425 148.81902, 236.5159425 148.81902, 265.74825 124.9016775, 265.74825 124.9016775, 255.11831999999998 90.354405, 255.11831999999998 90.354405, 265.74825 69.094545, 265.74825 69.094545, 255.11831999999998 34.5472725, 255.11831999999998 34.5472725, 265.74825 10.62993, 265.74825 10.62993, 236.5159425 0, 236.5159425 0, 207.283635 10.62993, 207.283635 10.62993, 186.023775 0, 186.023775 0, 164.763915 10.62993, 164.763915 10.62993, 143.504055 0, 143.504055 0, 122.24419499999999 10.62993, 122.24419499999999 10.62993, 100.984335 0, 100.984335 0, 79.724475 10.62993, 79.724475 10.62993, 58.464615 0, 58.464615 0, 29.2323075 10.62993, 29.2323075 "/> 
</g>
<!-- Top--> 
<g transform="translate(22.5000185, 288.2482685) " > 
<polygon style="stroke:#000000; fill:none; stroke-width:0.90000074" points="10.62993, 10.62993 35.433099999999996, 10.62993 35.433099999999996, 0 70.86619999999999, 0 70.86619999999999, 10.62993 92.12606, 10.62993 92.12606, 0 113.38592, 0 113.38592, 10.62993 134.64578, 10.62993 134.64578, 0 155.90564, 0 155.90564, 10.62993 177.1655, 10.62993 177.1655, 0 212.59859999999998, 0 212.59859999999998, 10.62993 237.40177, 10.62993 237.40177, 34.5472725 248.0317, 34.5472725 248.0317, 69.094545 237.40177, 69.094545 237.40177, 90.354405 248.0317, 90.354405 248.0317, 124.9016775 237.40177, 124.9016775 237.40177, 148.81902 212.59859999999998, 148.81902 212.59859999999998, 159.44895 177.1655, 159.44895 177.1655, 148.81902 155.90564, 148.81902 155.90564, 159.44895 134.64578, 159.44895 134.64578, 148.81902 113.38592, 148.81902 113.38592, 159.44895 92.12606, 159.44895 92.12606, 148.81902 70.86619999999999, 148.81902 70.86619999999999, 159.44895 35.433099999999996, 159.44895 35.433099999999996, 148.81902 10.62993, 148.81902 10.62993, 124.9016775 0, 124.9016775 0, 90.354405 10.62993, 90.354405 10.62993, 69.094545 0, 69.094545 0, 34.5472725 10.62993, 34.5472725 "/> 
</g>
<!-- Bottom--> 
<g transform="translate(270.53171849999995, 288.2482685) " > 
<polygon style="stroke:#000000; fill:none; stroke-width:0.90000074" points="10.62993, 10.62993 35.433099999999996, 10.62993 35.433099999999996, 0 70.86619999999999, 0 70.86619999999999, 10.62993 92.12606, 10.62993 92.12606, 0 113.38592, 0 113.38592, 10.62993 134.64578, 10.62993 134.64578, 0 155.90564, 0 155.90564, 10.62993 177.1655, 10.62993 177.1655, 0 212.59859999999998, 0 212.59859999999998, 10.62993 237.40177, 10.62993 237.40177, 34.5472725 248.0317, 34.5472725 248.0317, 69.094545 237.40177, 69.094545 237.40177, 90.354405 248.0317, 90.354405 248.0317, 124.9016775 237.40177, 124.9016775 237.40177, 148.81902 212.59859999999998, 148.81902 212.59859999999998, 159.44895 177.1655, 159.44895 177.1655, 148.81902 155.90564, 148.81902 155.90564, 159.44895 134.64578, 159.44895 134.64578, 148.81902 113.38592, 148.81902 113.38592, 159.44895 92.12606, 159.44895 92.12606, 148.81902 70.86619999999999, 148.81902 70.86619999999999, 159.44895 35.433099999999996, 159.44895 35.433099999999996, 148.81902 10.62993, 148.81902 10.62993, 124.9016775 0, 124.9016775 0, 90.354405 10.62993, 90.354405 10.62993, 69.094545 0, 69.094545 0, 34.5472725 10.62993, 34.5472725 "/> 
</g></svg>